######## ######## ######## ##          ######## ########  ######## ######## 
##       ##       ##       ##          ##       ##     ## ##       ##       
##       ##       ##       ##          ##       ##     ## ##       ##       
######   ######   ######   ##          ######   ########  ######   ######   
##       ##       ##       ##          ##       ##   ##   ##       ##       
##       ##       ##       ##          ##       ##    ##  ##       ##       
##       ######## ######## ########    ##       ##     ## ######## ######## 

 Genre:Drama | Horror | Mystery 
 Language:English
 IMDb:  http://www.imdb.com/title/tt1545315/
 Source:BluRay DTS x264-DNL


 Format : MPEG-4
 Format profile : Base Media
 Codec ID : isom
 File size : 2.03 GiB
 Duration : 1h 25mn
 Overall bit rate : 3 397 Kbps


 Video
 Format profile : High@L4.1
 Format settings, CABAC : Yes
 Format settings, ReFrames : 3 frames
 Codec ID : avc1
 Codec ID/Info : Advanced Video Coding
 Duration : 1h 25mn
 Bit rate mode : Variable
 Bit rate : 3 000 Kbps
 Maximum bit rate : 15.7 Mbps
 Width : 1 280 pixels
 Height : 528 pixels
 Display aspect ratio : 2.40:1
 Frame rate mode : Constant
 Frame rate : 25.000 fps
 Color space : YUV
 Chroma subsampling : 4:2:0
 Bit depth : 8 bits
 Scan type : Progressive
 Bits/(Pixel*Frame) : 0.178
 Stream size : 1.76 GiB (87%)
 Writing library : x264 


 Audio
 ID : 2
 Format : AAC
 Format/Info : Advanced Audio Codec
 Format version : Version 4
 Format profile : LC
 Format settings, SBR : No
 Codec ID : 40
 Duration : 1h 25mn
 Bit rate mode : Variable
 Bit rate : 443 Kbps
 Maximum bit rate : 560 Kbps
 Channel(s) : 6 channels
 Channel positions : Front: L C R, Side: L R, LFE
 Sampling rate : 48.0 KHz
 Stream size : 271 MiB (13%)


 Plot:
 A killer uses an 18th century machine with supernatural powers to terrorize  students at Saint Mary's College. 





==================================  
http://thepiratebay.org/user/hiest
==================================





 Screen Shots:
  http://www.pix2links.com/images/22050280106345368796.png
  http://www.pix2links.com/images/56096434200998646653.png
  http://www.pix2links.com/images/50128921656210659419.png
  http://www.pix2links.com/images/76243473339136307090.png
  http://www.pix2links.com/images/52360292288847170083.png
  http://www.pix2links.com/images/11818717619793261940.png

######## ######## ######## ##          ######## ########  ######## ######## 
##       ##       ##       ##          ##       ##     ## ##       ##       
##       ##       ##       ##          ##       ##     ## ##       ##       
######   ######   ######   ##          ######   ########  ######   ######   
##       ##       ##       ##          ##       ##   ##   ##       ##       
##       ##       ##       ##          ##       ##    ##  ##       ##       
##       ######## ######## ########    ##       ##     ## ######## ######## 